<svg xmlns="http://www.w3.org/2000/svg" version="1.1" xmlns:xlink="http://www.w3.org/1999/xlink" xmlns:svgjs="http://svgjs.dev/svgjs" width="1000" height="1000"><g clip-path="url(#SvgjsClipPath1036)"><rect width="1000" height="1000" fill="#ffffff"></rect><g transform="matrix(17.94871794871795,0,0,17.94871794871795,150,176.9230769230769)"><svg xmlns="http://www.w3.org/2000/svg" version="1.1" xmlns:xlink="http://www.w3.org/1999/xlink" xmlns:svgjs="http://svgjs.dev/svgjs" width="39" height="36"><svg width="39" height="36" viewBox="0 0 39 36" fill="none" xmlns="http://www.w3.org/2000/svg">
<path d="M12 6H9V9H12V6Z" fill="black"></path>
<path d="M15 6H12V9H15V6Z" fill="black"></path>
<path d="M9 9H6V12H9V9Z" fill="black"></path>
<path d="M9 12H6V15H9V12Z" fill="black"></path>
<path d="M9 15H6V18H9V15Z" fill="black"></path>
<path d="M18 6H15V9H18V6Z" fill="black"></path>
<path d="M12 18H9V21H12V18Z" fill="black"></path>
<path d="M15 21H12V24H15V21Z" fill="black"></path>
<path d="M18 24H15V27H18V24Z" fill="black"></path>
<path d="M27 6H30V9H27V6Z" fill="black"></path>
<path d="M24 6H27V9H24V6Z" fill="black"></path>
<path d="M30 9H33V12H30V9Z" fill="black"></path>
<path d="M30 12H33V15H30V12Z" fill="black"></path>
<path d="M30 15H33V18H30V15Z" fill="black"></path>
<path d="M21 6H24V9H21V6Z" fill="black"></path>
<path d="M27 18H30V21H27V18Z" fill="black"></path>
<path d="M24 21H27V24H24V21Z" fill="black"></path>
<path d="M21 24H24V27H21V24Z" fill="black"></path>
<path d="M21 9H18V12H21V9Z" fill="black"></path>
<path d="M21 27H18V30H21V27Z" fill="black"></path>
</svg></svg></g></g><defs><clipPath id="SvgjsClipPath1036"><rect width="1000" height="1000" x="0" y="0" rx="350" ry="350"></rect></clipPath></defs></svg>